<svg width="355" height="333" viewBox="0 0 355 333" fill="none" xmlns="http://www.w3.org/2000/svg">
<path d="M137.407 150.658C138.544 151.466 140.569 150.571 141.928 148.659C143.287 146.747 143.467 144.541 142.33 143.732C141.193 142.924 139.168 143.819 137.809 145.731C136.45 147.643 136.27 149.849 137.407 150.658Z" fill="#FFFDF0"/>
<path d="M178.647 8.38927C179.784 9.19783 181.808 8.30304 183.168 6.3907C184.527 4.47835 184.707 2.27261 183.57 1.46404C182.432 0.655474 180.408 1.55026 179.049 3.46261C177.689 5.37496 177.509 7.5807 178.647 8.38927Z" fill="#FFFDF0"/>
<path d="M258.613 54.3811C260.09 52.3035 260.251 50.3329 259.015 49.4544C257.779 48.576 255.971 49.3754 254.494 51.453C253.258 50.5746 251.45 51.374 249.973 53.4516C248.496 55.5291 248.336 57.4998 249.571 58.3782C248.094 60.4558 247.934 62.4265 249.169 63.3049C250.405 64.1833 252.213 63.3839 253.69 61.3063C254.926 62.1847 256.734 61.3853 258.211 59.3077C259.688 57.2302 259.849 55.2595 258.613 54.3811ZM174.422 124.842C175.899 122.764 176.06 120.794 174.824 119.915C173.588 119.037 171.78 119.836 170.303 121.914C169.067 121.035 167.259 121.835 165.782 123.912C164.305 125.99 164.144 127.961 165.38 128.839C163.903 130.917 163.742 132.887 164.978 133.766C166.214 134.644 168.022 133.845 169.499 131.767C170.735 132.646 172.543 131.846 174.02 129.769C175.497 127.691 175.658 125.72 174.422 124.842Z" fill="#F2D230"/>
<path d="M261.238 246.66L257.119 243.732C255.883 242.853 256.044 240.883 257.521 238.805C258.998 236.727 260.806 235.928 262.042 236.806L266.161 239.735C267.397 240.613 267.236 242.584 265.759 244.661C264.282 246.739 262.474 247.538 261.238 246.66ZM333.022 141.317L328.903 138.389C327.668 137.511 327.828 135.54 329.305 133.463C330.782 131.385 332.591 130.586 333.826 131.464L337.945 134.392C339.181 135.271 339.02 137.241 337.543 139.319C336.066 141.396 334.258 142.196 333.022 141.317Z" fill="#F2D230"/>
<path d="M421.271 135.599C422.841 132.253 422.972 129.593 421.599 128.949C420.226 128.305 418.265 130.107 416.696 133.453C415.323 132.809 413.362 134.611 411.792 137.957C410.223 141.304 410.091 143.964 411.464 144.607C409.894 147.954 409.763 150.614 411.136 151.257C412.508 151.901 414.47 150.1 416.039 146.753C417.412 147.397 419.373 145.596 420.943 142.249C422.512 138.903 422.644 136.243 421.271 135.599ZM330.711 263.223C332.28 259.877 332.411 257.217 331.039 256.573C329.666 255.929 327.705 257.731 326.135 261.077C324.763 260.433 322.801 262.235 321.232 265.581C319.662 268.927 319.531 271.587 320.904 272.231C319.334 275.578 319.203 278.238 320.575 278.881C321.948 279.525 323.909 277.724 325.479 274.377C326.852 275.021 328.813 273.219 330.382 269.873C331.952 266.527 332.083 263.867 330.711 263.223Z" fill="#F2D230"/>
<path d="M111.754 233.959C113.231 231.882 113.392 229.911 112.156 229.033C110.92 228.154 109.112 228.954 107.635 231.031C106.399 230.153 104.591 230.952 103.114 233.03C101.637 235.107 101.477 237.078 102.712 237.956C101.235 240.034 101.075 242.005 102.31 242.883C103.546 243.761 105.354 242.962 106.831 240.884C108.067 241.763 109.875 240.963 111.352 238.886C112.829 236.808 112.99 234.838 111.754 233.959ZM27.563 304.42C29.0399 302.342 29.2006 300.372 27.9649 299.493C26.7292 298.615 24.9208 299.414 23.4439 301.492C22.2082 300.614 20.3999 301.413 18.923 303.49C17.4461 305.568 17.2853 307.539 18.521 308.417C17.0441 310.495 16.8834 312.465 18.1191 313.344C19.3548 314.222 21.1632 313.423 22.6401 311.345C23.8758 312.224 25.6841 311.424 27.161 309.347C28.6379 307.269 28.7987 305.298 27.563 304.42Z" fill="#F2D230"/>
<path d="M97.7542 54.9592C99.231 52.8816 99.3918 50.911 98.1561 50.0326C96.9204 49.1541 95.112 49.9536 93.6351 52.0311C92.3994 51.1527 90.591 51.9521 89.1142 54.0297C87.6373 56.1073 87.4765 58.0779 88.7122 58.9563C87.2353 61.0339 87.0746 63.0046 88.3103 63.883C89.546 64.7614 91.3544 63.962 92.8312 61.8844C94.0669 62.7629 95.8753 61.9634 97.3522 59.8859C98.8291 57.8083 98.9899 55.8376 97.7542 54.9592ZM13.563 125.42C15.0399 123.342 15.2006 121.372 13.9649 120.493C12.7292 119.615 10.9208 120.414 9.44395 122.492C8.20824 121.614 6.39986 122.413 4.92298 124.49C3.4461 126.568 3.28532 128.539 4.52103 129.417C3.04415 131.495 2.88337 133.465 4.11908 134.344C5.35479 135.222 7.16317 134.423 8.64005 132.345C9.87576 133.224 11.6841 132.424 13.161 130.347C14.6379 128.269 14.7987 126.298 13.563 125.42Z" fill="#F2D230"/>
<path d="M22.2381 219.66L18.1191 216.732C16.8834 215.853 17.0442 213.883 18.521 211.805C19.9979 209.727 21.8063 208.928 23.042 209.806L27.161 212.735C28.3967 213.613 28.236 215.584 26.7591 217.661C25.2822 219.739 23.4738 220.538 22.2381 219.66ZM94.0225 114.317L89.9034 111.389C88.6677 110.511 88.8285 108.54 90.3054 106.463C91.7823 104.385 93.5907 103.586 94.8264 104.464L98.9454 107.392C100.181 108.271 100.02 110.241 98.5434 112.319C97.0666 114.396 95.2582 115.196 94.0225 114.317Z" fill="#F2D230"/>
<path d="M42.0245 271.166C41.0163 271.093 40.0249 270.787 39.8064 270.302C39.3359 269.798 39.1257 269.196 39.1676 268.611C39.2682 267.209 40.6123 266.13 42.9309 265.592C43.7038 265.412 44.5018 264.882 44.5437 264.298C44.5856 263.714 44.1151 263.21 43.1321 262.787C40.914 261.923 39.7377 260.664 39.8382 259.261C39.9388 257.859 41.2829 256.781 43.6015 256.242C44.3744 256.063 45.1724 255.532 45.2143 254.948C45.2562 254.364 44.7857 253.86 43.8027 253.437C42.5676 252.996 42.3659 252.277 43.1639 251.747C43.9619 251.217 45.4826 251.208 46.7176 251.649C48.9357 252.513 50.1036 253.889 50.0114 255.175C49.9192 256.46 48.5668 257.655 46.2482 258.194C45.4585 258.607 44.9209 259.039 44.879 259.623C44.8371 260.207 45.3076 260.711 46.2907 261.134C48.5087 261.998 49.6767 263.374 49.5845 264.659C49.4923 265.945 48.1399 267.14 45.8212 267.679C44.7879 267.957 44.2503 268.388 44.2084 268.973C44.1916 269.207 44.1749 269.44 44.4102 269.692C44.8723 270.313 44.3179 270.978 43.041 271.121C42.7806 271.22 42.2765 271.184 42.0245 271.166Z" fill="#2A2C57"/>
<path d="M231.024 119.166C230.016 119.093 229.025 118.787 228.806 118.302C228.336 117.798 228.126 117.196 228.168 116.611C228.268 115.209 229.612 114.13 231.931 113.592C232.704 113.412 233.502 112.882 233.544 112.298C233.586 111.714 233.115 111.21 232.132 110.787C229.914 109.923 228.738 108.664 228.838 107.261C228.939 105.859 230.283 104.781 232.601 104.242C233.374 104.063 234.172 103.532 234.214 102.948C234.256 102.364 233.786 101.86 232.803 101.437C231.568 100.996 231.366 100.277 232.164 99.7467C232.962 99.2166 234.482 99.2081 235.718 99.6491C237.936 100.513 239.104 101.889 239.011 103.175C238.919 104.46 237.567 105.655 235.248 106.194C234.458 106.607 233.921 107.039 233.879 107.623C233.837 108.207 234.308 108.711 235.291 109.134C237.509 109.998 238.677 111.374 238.584 112.659C238.492 113.945 237.14 115.14 234.821 115.679C233.788 115.957 233.25 116.388 233.208 116.973C233.192 117.207 233.175 117.44 233.41 117.692C233.872 118.313 233.318 118.978 232.041 119.121C231.781 119.22 231.276 119.184 231.024 119.166Z" fill="#E791A5"/>
<path d="M48.6916 47.1684C47.6834 47.0961 46.7068 46.5838 46.5179 45.6858C46.0927 44.5498 45.9038 43.6519 45.9827 42.552C46.172 39.9123 47.5899 37.803 49.953 36.6458C50.7406 36.2601 51.5756 35.2145 51.6545 34.1146C51.7334 33.0148 51.2924 32.0987 50.3316 31.3665C49.1187 30.6162 48.9614 29.2783 49.7964 28.2327C50.6314 27.187 52.1594 27.0755 53.3722 27.8258C55.5459 29.3083 56.6326 31.8184 56.459 34.2381C56.2697 36.8778 54.8517 38.9871 52.4887 40.1443C51.6695 40.9699 51.1023 41.8137 51.0234 42.9135C50.9919 43.3535 50.9603 43.7934 51.1808 44.2514C51.606 45.3875 51.0072 46.6711 49.7155 47.0207C49.4477 47.2226 48.9436 47.1864 48.6916 47.1684Z" fill="#2A2C57"/>
</svg>
