<svg width="221" height="156" viewBox="0 0 221 156" fill="none" xmlns="http://www.w3.org/2000/svg">
<path d="M28.8768 34.3793C19.3807 34.3793 11.6543 26.6677 11.6543 17.1896C11.6543 7.75465 19.3807 0.0429688 28.8768 0.0429688C38.3729 0.0429688 46.0992 7.75465 46.0992 17.2327C46.0561 26.6677 38.3297 34.3793 28.8768 34.3793ZM28.8768 4.35117C21.7547 4.35117 15.9707 10.1242 15.9707 17.1896C15.9707 24.2551 21.7547 30.0711 28.8768 30.0711C35.9988 30.0711 41.7828 24.2981 41.7828 17.1896C41.7828 10.0811 35.9557 4.35117 28.8768 4.35117ZM48.9912 156H8.41699C7.2084 156 6.25879 155.052 6.25879 153.846V153.415C6.25879 141.05 16.316 131.012 28.7041 131.012C41.0922 131.012 51.1494 141.05 51.1494 153.415V153.846C51.1494 155.052 50.1998 156 48.9912 156ZM10.6615 151.692H46.7467C45.8834 142.515 38.1139 135.321 28.7041 135.321C19.2943 135.321 11.5248 142.515 10.6615 151.692Z" fill="#2A2C57"/>
<path d="M37.3369 30.8467H33.0205V134.545H37.3369V30.8467Z" fill="#2A2C57"/>
<path d="M57.4082 151.692H0V156H57.4082V151.692Z" fill="#2A2C57"/>
<path d="M192.469 34.3794C182.972 34.3794 175.246 26.6678 175.246 17.1897C175.246 7.71168 182.972 0 192.469 0C201.965 0 209.691 7.71168 209.691 17.1897C209.648 26.6678 201.921 34.3794 192.469 34.3794ZM192.469 4.35128C185.346 4.35128 179.562 10.1243 179.562 17.2328C179.562 24.3413 185.346 30.1143 192.469 30.1143C199.591 30.1143 205.375 24.3413 205.375 17.2328C205.375 10.1243 199.547 4.35128 192.469 4.35128ZM212.583 156H172.009C170.8 156 169.851 155.052 169.851 153.846V153.415C169.851 141.051 179.908 131.012 192.296 131.012C204.684 131.012 214.741 141.051 214.741 153.415V153.846C214.741 155.052 213.792 156 212.583 156ZM174.253 151.692H210.338C209.475 142.515 201.706 135.321 192.296 135.321C182.886 135.321 175.117 142.515 174.253 151.692Z" fill="#2A2C57"/>
<path d="M187.979 30.8467H183.663V134.244H187.979V30.8467Z" fill="#2A2C57"/>
<path d="M200.929 30.8467H196.612V125.627H200.929V30.8467Z" fill="#2A2C57"/>
<path d="M221 151.692H163.592V156H221V151.692Z" fill="#2A2C57"/>
<path d="M132.168 49.8891C131.78 49.8891 131.434 49.803 131.089 49.5876L123.622 45.2794C121.118 43.8577 119.349 41.5312 118.615 38.7309C117.881 35.9306 118.269 33.0441 119.694 30.5453L122.284 26.0648C125.262 20.938 131.866 19.1717 137.046 22.1012C142.182 25.0739 143.952 31.6654 141.017 36.8353L134.111 48.769C133.809 49.2429 133.334 49.6306 132.816 49.7599C132.557 49.8891 132.341 49.8891 132.168 49.8891ZM131.607 25.0308C131.046 25.0308 130.485 25.117 129.924 25.2462C128.24 25.677 126.859 26.7541 125.996 28.262L123.406 32.7425C122.543 34.2504 122.327 35.9736 122.758 37.6538C123.19 39.334 124.269 40.7127 125.78 41.5743L131.391 44.8055L137.218 34.7243C138.988 31.6224 137.952 27.6588 134.844 25.8924C133.852 25.3324 132.729 25.0308 131.607 25.0308ZM147.146 64.7955C143.434 64.7955 139.765 62.8568 137.78 59.4103L133.463 51.9571C132.859 50.9231 133.204 49.6306 134.24 49.0275L146.197 42.1344C151.333 39.1617 157.98 40.9281 160.959 46.0548C163.937 51.1816 162.167 57.8162 157.031 60.7889L152.542 63.3738C150.815 64.3647 148.959 64.7955 147.146 64.7955ZM138.254 51.6986L141.492 57.2992C143.261 60.4011 147.233 61.4351 150.34 59.6687L154.829 57.0838C157.937 55.3175 158.973 51.3539 157.203 48.252C155.434 45.1501 151.463 44.1161 148.355 45.8825L138.254 51.6986Z" fill="#2A2C57"/>
<path d="M96.4717 75.4366C96.2991 75.4366 96.0833 75.3935 95.9106 75.3504C95.3495 75.2212 94.8747 74.8334 94.6157 74.3595C91.6374 69.2328 93.4071 62.5981 98.5436 59.6255L114.989 50.1474C115.291 49.9751 115.593 49.8889 115.939 49.8459L135.19 48.6826C136.01 48.6396 136.787 49.0704 137.175 49.7597L141.492 57.2129C141.88 57.8591 141.88 58.6346 141.535 59.3239C141.19 59.9701 140.499 60.401 139.765 60.444L120.989 61.5642L97.5509 75.1781C97.2055 75.3504 96.8171 75.4366 96.4717 75.4366ZM116.716 54.1541L100.702 63.3736C98.2846 64.7953 97.076 67.5526 97.594 70.1375L119.349 57.6006C119.651 57.4283 119.953 57.3421 120.298 57.2991L136.096 56.3512L134.197 53.077L116.716 54.1541Z" fill="#2A2C57"/>
<path d="M114.04 89.869C112.227 89.869 110.371 89.3951 108.644 88.4473C108.169 88.1457 107.781 87.6718 107.651 87.1548C107.522 86.5947 107.565 86.0347 107.867 85.5177L121.421 62.0811L121.593 59.2376L125.91 59.4961L125.694 62.8565C125.694 63.2012 125.564 63.5028 125.392 63.8043L112.831 85.5177C113.781 85.69 114.73 85.6469 115.68 85.3884C117.363 84.9576 118.744 83.8806 119.608 82.3727L128.845 66.3893L129.32 58.7637L133.636 59.0222L133.161 67.1647C133.161 67.5094 133.032 67.811 132.859 68.1125L123.363 84.5268C121.377 87.9303 117.752 89.869 114.04 89.869ZM126.341 51.6983L122.025 51.4398L122.5 43.2973C122.543 42.5649 122.974 41.8756 123.622 41.5309C124.269 41.1863 125.09 41.1863 125.737 41.574L133.204 45.8822C133.895 46.27 134.327 47.0454 134.283 47.864L134.068 51.2244L129.751 50.9659L129.881 48.941L126.6 47.0454L126.341 51.6983Z" fill="#2A2C57"/>
<path d="M112.14 84.4839H62.8037C47.092 84.4839 34.1859 72.2917 33.1068 56.9114H22.2295C21.0209 56.9114 20.0713 55.9636 20.0713 54.7573V46.1409C20.0713 44.9346 21.0209 43.9868 22.2295 43.9868H35.1787C36.1283 43.9868 36.9484 44.59 37.2506 45.4947L39.8404 53.7234C43.1641 64.4077 52.9623 71.5593 64.1418 71.5593H117.147V75.8675H64.1418C53.0486 75.8675 43.1209 69.836 37.9844 60.358C40.5742 71.6886 50.7178 80.1757 62.8037 80.1757H112.14V84.4839ZM24.3877 52.6032H34.9197L33.5816 48.295H24.3877V52.6032ZM158.196 84.4839H130.744V80.1757H158.196C170.325 80.1757 180.469 71.6886 183.016 60.358C177.879 69.7929 167.995 75.8675 156.858 75.8675H127.075V71.5593H156.858C168.038 71.5593 177.836 64.4077 181.16 53.7234L183.749 45.4947C184.052 44.59 184.872 43.9868 185.821 43.9868H198.771C199.979 43.9868 200.929 44.9346 200.929 46.1409V54.7573C200.929 55.9636 199.979 56.9114 198.771 56.9114H187.893C186.814 72.2917 173.908 84.4839 158.196 84.4839ZM186.08 52.6032H196.612V48.295H187.418L186.08 52.6032Z" fill="#2A2C57"/>
<path d="M24.3877 30.8467H20.0713V54.7572H24.3877V30.8467Z" fill="#2A2C57"/>
<path d="M24.3877 63.5029H20.0713V134.588H24.3877V63.5029Z" fill="#2A2C57"/>
</svg>
