<svg width="360" height="500" viewBox="0 0 360 500" fill="none" xmlns="http://www.w3.org/2000/svg">
<path d="M640 235.5C640 381.579 434.499 500 181 500C-72.4987 500 -278 381.579 -278 235.5C-278 89.4207 -72.4987 -29 181 -29C434.499 -29 640 89.4207 640 235.5Z" fill="#570E57"/>
<path d="M139.407 152.658C140.544 153.466 142.569 152.571 143.928 150.659C145.287 148.747 145.467 146.541 144.33 145.732C143.193 144.924 141.168 145.819 139.809 147.731C138.45 149.643 138.27 151.849 139.407 152.658Z" fill="#FFFDF0"/>
<path d="M180.647 10.3893C181.784 11.1978 183.808 10.303 185.168 8.3907C186.527 6.47835 186.707 4.27261 185.57 3.46404C184.432 2.65547 182.408 3.55026 181.049 5.46261C179.689 7.37496 179.509 9.5807 180.647 10.3893Z" fill="#FFFDF0"/>
<path d="M260.613 56.3811C262.09 54.3035 262.251 52.3329 261.015 51.4544C259.779 50.576 257.971 51.3754 256.494 53.453C255.258 52.5746 253.45 53.374 251.973 55.4516C250.496 57.5291 250.336 59.4998 251.571 60.3782C250.094 62.4558 249.934 64.4265 251.169 65.3049C252.405 66.1833 254.213 65.3839 255.69 63.3063C256.926 64.1847 258.734 63.3853 260.211 61.3077C261.688 59.2302 261.849 57.2595 260.613 56.3811ZM176.422 126.842C177.899 124.764 178.06 122.794 176.824 121.915C175.588 121.037 173.78 121.836 172.303 123.914C171.067 123.035 169.259 123.835 167.782 125.912C166.305 127.99 166.144 129.961 167.38 130.839C165.903 132.917 165.742 134.887 166.978 135.766C168.214 136.644 170.022 135.845 171.499 133.767C172.735 134.646 174.543 133.846 176.02 131.769C177.497 129.691 177.658 127.72 176.422 126.842Z" fill="#FFFDF0"/>
<path d="M263.238 248.66L259.119 245.732C257.883 244.853 258.044 242.883 259.521 240.805C260.998 238.727 262.806 237.928 264.042 238.806L268.161 241.735C269.397 242.613 269.236 244.584 267.759 246.661C266.282 248.739 264.474 249.538 263.238 248.66ZM335.022 143.317L330.903 140.389C329.668 139.511 329.828 137.54 331.305 135.463C332.782 133.385 334.591 132.586 335.826 133.464L339.945 136.392C341.181 137.271 341.02 139.241 339.543 141.319C338.066 143.396 336.258 144.196 335.022 143.317Z" fill="#FFFDF0"/>
<path d="M423.271 137.599C424.841 134.253 424.972 131.593 423.599 130.949C422.227 130.305 420.265 132.107 418.696 135.453C417.323 134.809 415.362 136.611 413.792 139.957C412.223 143.304 412.091 145.964 413.464 146.607C411.894 149.954 411.763 152.614 413.136 153.257C414.509 153.901 416.47 152.1 418.039 148.753C419.412 149.397 421.373 147.596 422.943 144.249C424.512 140.903 424.644 138.243 423.271 137.599ZM332.711 265.223C334.28 261.877 334.411 259.217 333.039 258.573C331.666 257.929 329.705 259.731 328.135 263.077C326.763 262.433 324.801 264.235 323.232 267.581C321.662 270.927 321.531 273.587 322.904 274.231C321.334 277.578 321.203 280.238 322.575 280.881C323.948 281.525 325.909 279.724 327.479 276.377C328.852 277.021 330.813 275.219 332.383 271.873C333.952 268.527 334.083 265.867 332.711 265.223Z" fill="#FFFDF0"/>
<path d="M113.754 235.959C115.231 233.882 115.392 231.911 114.156 231.033C112.92 230.154 111.112 230.954 109.635 233.031C108.399 232.153 106.591 232.952 105.114 235.03C103.637 237.107 103.476 239.078 104.712 239.956C103.235 242.034 103.074 244.005 104.31 244.883C105.546 245.761 107.354 244.962 108.831 242.884C110.067 243.763 111.875 242.963 113.352 240.886C114.829 238.808 114.99 236.838 113.754 235.959ZM29.5629 306.42C31.0398 304.342 31.2006 302.372 29.9649 301.493C28.7292 300.615 26.9208 301.414 25.4439 303.492C24.2082 302.614 22.3998 303.413 20.9229 305.49C19.446 307.568 19.2853 309.539 20.521 310.417C19.0441 312.495 18.8833 314.465 20.119 315.344C21.3547 316.222 23.1631 315.423 24.64 313.345C25.8757 314.224 27.6841 313.424 29.161 311.347C30.6378 309.269 30.7986 307.298 29.5629 306.42Z" fill="#FFFDF0"/>
<path d="M99.7541 56.9592C101.231 54.8816 101.392 52.911 100.156 52.0326C98.9203 51.1541 97.1119 51.9536 95.6351 54.0311C94.3994 53.1527 92.591 53.9521 91.1141 56.0297C89.6372 58.1073 89.4764 60.0779 90.7121 60.9563C89.2353 63.0339 89.0745 65.0046 90.3102 65.883C91.5459 66.7614 93.3543 65.962 94.8312 63.8844C96.0669 64.7629 97.8753 63.9634 99.3521 61.8859C100.829 59.8083 100.99 57.8376 99.7541 56.9592ZM15.5629 127.42C17.0398 125.342 17.2006 123.372 15.9649 122.493C14.7292 121.615 12.9208 122.414 11.4439 124.492C10.2082 123.614 8.39979 124.413 6.92292 126.49C5.44604 128.568 5.28526 130.539 6.52096 131.417C5.04409 133.495 4.88331 135.465 6.11902 136.344C7.35473 137.222 9.16311 136.423 10.64 134.345C11.8757 135.224 13.6841 134.424 15.161 132.347C16.6378 130.269 16.7986 128.298 15.5629 127.42Z" fill="#FFFDF0"/>
<path d="M24.238 221.66L20.119 218.732C18.8833 217.853 19.0441 215.883 20.521 213.805C21.9979 211.727 23.8062 210.928 25.0419 211.806L29.161 214.735C30.3967 215.613 30.2359 217.584 28.759 219.661C27.2821 221.739 25.4738 222.538 24.238 221.66ZM96.0224 116.317L91.9034 113.389C90.6677 112.511 90.8284 110.54 92.3053 108.463C93.7822 106.385 95.5906 105.586 96.8263 106.464L100.945 109.392C102.181 110.271 102.02 112.241 100.543 114.319C99.0665 116.396 97.2581 117.196 96.0224 116.317Z" fill="#FFFDF0"/>
<path d="M44.0245 273.166C43.0163 273.093 42.0249 272.787 41.8064 272.302C41.3359 271.798 41.1257 271.196 41.1676 270.611C41.2682 269.209 42.6123 268.13 44.9309 267.592C45.7038 267.412 46.5018 266.882 46.5437 266.298C46.5856 265.714 46.1151 265.21 45.1321 264.787C42.914 263.923 41.7377 262.664 41.8382 261.261C41.9388 259.859 43.2829 258.781 45.6015 258.242C46.3744 258.063 47.1724 257.532 47.2143 256.948C47.2562 256.364 46.7857 255.86 45.8027 255.437C44.5676 254.996 44.3659 254.277 45.1639 253.747C45.9619 253.217 47.4826 253.208 48.7176 253.649C50.9357 254.513 52.1036 255.889 52.0114 257.175C51.9192 258.46 50.5668 259.655 48.2482 260.194C47.4585 260.607 46.9209 261.039 46.879 261.623C46.8371 262.207 47.3076 262.711 48.2907 263.134C50.5087 263.998 51.6767 265.374 51.5845 266.659C51.4923 267.945 50.1399 269.14 47.8212 269.679C46.7879 269.957 46.2503 270.388 46.2084 270.973C46.1916 271.207 46.1749 271.44 46.4102 271.692C46.8723 272.313 46.3179 272.978 45.041 273.121C44.7806 273.22 44.2765 273.184 44.0245 273.166Z" fill="#FFFDF0"/>
<path d="M233.024 121.166C232.016 121.093 231.025 120.787 230.806 120.302C230.336 119.798 230.126 119.196 230.168 118.611C230.268 117.209 231.612 116.13 233.931 115.592C234.704 115.412 235.502 114.882 235.544 114.298C235.586 113.714 235.115 113.21 234.132 112.787C231.914 111.923 230.738 110.664 230.838 109.261C230.939 107.859 232.283 106.781 234.601 106.242C235.374 106.063 236.172 105.532 236.214 104.948C236.256 104.364 235.786 103.86 234.803 103.437C233.568 102.996 233.366 102.277 234.164 101.747C234.962 101.217 236.483 101.208 237.718 101.649C239.936 102.513 241.104 103.889 241.011 105.175C240.919 106.46 239.567 107.655 237.248 108.194C236.459 108.607 235.921 109.039 235.879 109.623C235.837 110.207 236.308 110.711 237.291 111.134C239.509 111.998 240.677 113.374 240.584 114.659C240.492 115.945 239.14 117.14 236.821 117.679C235.788 117.957 235.25 118.388 235.208 118.973C235.192 119.207 235.175 119.44 235.41 119.692C235.872 120.313 235.318 120.978 234.041 121.121C233.781 121.22 233.276 121.184 233.024 121.166Z" fill="#E791A5"/>
<path d="M50.6916 49.1684C49.6834 49.0961 48.7068 48.5838 48.5179 47.6858C48.0927 46.5498 47.9038 45.6519 47.9827 44.552C48.172 41.9123 49.5899 39.803 51.953 38.6458C52.7406 38.2601 53.5756 37.2145 53.6545 36.1146C53.7334 35.0148 53.2924 34.0987 52.3316 33.3665C51.1187 32.6162 50.9614 31.2783 51.7964 30.2327C52.6314 29.187 54.1594 29.0755 55.3722 29.8258C57.5459 31.3083 58.6326 33.8184 58.459 36.2381C58.2697 38.8778 56.8517 40.9871 54.4887 42.1443C53.6695 42.9699 53.1023 43.8137 53.0234 44.9135C52.9919 45.3535 52.9603 45.7934 53.1808 46.2514C53.606 47.3875 53.0072 48.6711 51.7155 49.0207C51.4477 49.2226 50.9436 49.1864 50.6916 49.1684Z" fill="#FFFDF0"/>
</svg>
